<svg height="23" viewBox="0 0 32 23" width="32" xmlns="http://www.w3.org/2000/svg"><path d="m30.8852564 20.0918474v-13.57393539h-.0102364c.0051182-.08379596.0102364-.16557273.0102364-.25340705 0-3.4578452-3.781325-6.26450496-8.446051-6.26450496-2.5765011 0-4.8837849.85916095-6.4325517 2.21100175-1.5497905-1.3518408-3.8550271-2.21100175-6.43255178-2.21100175-4.66472602 0-8.44400371 2.80665976-8.44400371 6.26450496 0 .08783432.00409455.16961109.00921275.25340705h-.00921275v9.59716099 3.5648618c0 2.2281647-1.13009821 2.6602692-1.13009821 2.6602692v.3806154h6.25546208v-.3806154s-.98576501-.376577-1.11576725-2.2483566v-13.4729764c.00614184-2.05653451.73497329-3.84754689 2.20799078-4.6410845.49851253-.26249336 1.08198715-.42907568 1.74735294-.42907568 1.06253795 0 1.91625345.26653171 2.64508495.73700058 1.1638783.76930746 1.8875915 2.06158245 2.1967307 3.5870727.0307092.22715772.0481111.46542092.0583475.70671289.0071655.11711242.0143309.23624402.0143309.35638521v12.0534931.6905595c0 2.2281647-1.1321454 2.6602692-1.1321454 2.6602692v.3806154h6.2564857v-.3806154s-.985765-.376577-1.1167909-2.2483566v-13.57393539h-.0071655c.0040946-.08379596.0071655-.16557273.0071655-.25340705v-.04139318c.0911039-1.88389465.8168645-3.50125757 2.1936598-4.24532528.5015835-.26249336 1.0860817-.42907568 1.7514475-.42907568 1.0594671 0 1.9131826.26653171 2.6409904.74002935 1.1649019.76627869 1.8916861 2.05855368 2.2018489 3.58404393.0440165.34628932.0675602.70166494.0675602 1.0630981v12.0534931.6905595c0 2.2281647-1.1300982 2.6602692-1.1300982 2.6602692v.3806154h6.2575094v-.3806154s-.985765-.376577-1.1147436-2.2483566" fill="#fff" fill-rule="evenodd"/></svg>