<svg id="function" xmlns="http://www.w3.org/2000/svg" width="510" height="510" viewBox="0 0 510 510">
  <path id="Path_1" data-name="Path 1" d="M427.5,0H82.5A82.594,82.594,0,0,0,0,82.5v345A82.594,82.594,0,0,0,82.5,510h345A82.594,82.594,0,0,0,510,427.5V82.5A82.594,82.594,0,0,0,427.5,0ZM480,427.5A52.56,52.56,0,0,1,427.5,480H82.5A52.56,52.56,0,0,1,30,427.5V82.5A52.56,52.56,0,0,1,82.5,30h345A52.56,52.56,0,0,1,480,82.5Z" fill="#fff"/>
  <path id="Path_2" data-name="Path 2" d="M285,180V157.5a67.5,67.5,0,0,0-135,0V210H105v30h45V390h30V240h45V210H180V157.5a37.5,37.5,0,0,1,75,0V180Z" fill="#fff"/>
  <path id="Path_3" data-name="Path 3" d="M379.394,248.394,330,297.787l-49.394-49.393-21.212,21.212L308.787,319l-49.393,49.394,21.212,21.212L330,340.213l49.394,49.393,21.212-21.212L351.213,319l49.393-49.394Z" fill="#0048f2"/>
</svg>
